<?xml version="1.0" encoding="utf-8"?>
<!-- Generator: Adobe Illustrator 28.3.0, SVG Export Plug-In . SVG Version: 6.00 Build 0)  -->
<svg version="1.1" id="Layer_1" xmlns="http://www.w3.org/2000/svg" xmlns:xlink="http://www.w3.org/1999/xlink" x="0px" y="0px"
	 viewBox="0 0 256 256" style="enable-background:new 0 0 256 256;" xml:space="preserve">
<g>
	<g>
		<path fill="white" d="M103.8,120.03c0,0,23.91-1.86,23.91-31.07c0-29.25-19.56-43.48-44.35-43.48H1.8v163.34h81.56c0,0,49.8,1.63,49.8-48.22
			C133.14,160.58,135.32,120.03,103.8,120.03z M37.74,74.49h45.62c0,0,11.09,0,11.09,16.98c0,17.01-6.52,19.47-13.93,19.47H37.74
			V74.49z M81.04,179.78H37.74v-43.66h45.62c0,0,16.53-0.23,16.53,22.43C99.88,177.66,87.54,179.64,81.04,179.78z"/>
	</g>
	<g>
		<path fill="white" d="M199.55,87.01c-60.29,0-60.24,62.77-60.24,62.77s-4.12,62.44,60.24,62.44c0,0,53.62,3.21,53.62-43.43h-27.57
			c0,0,0.91,17.58-25.12,17.58c0,0-27.6,1.92-27.6-28.43h81.16C254.05,157.92,262.99,87.01,199.55,87.01z M224.07,136.12h-51.48
			c0,0,3.36-25.17,27.57-25.17C224.38,110.95,224.07,136.12,224.07,136.12z"/>
	</g>
	<g>
		<rect fill="white" x="165.82" y="55.07" width="64.66" height="20.14"/>
	</g>
</g>
</svg>
