<?xml version="1.0" encoding="utf-8"?>
<!-- Generator: Adobe Illustrator 28.3.0, SVG Export Plug-In . SVG Version: 6.00 Build 0)  -->
<svg version="1.1" id="Layer_1" xmlns="http://www.w3.org/2000/svg" xmlns:xlink="http://www.w3.org/1999/xlink" x="0px" y="0px"
	 viewBox="0 0 256 256" style="enable-background:new 0 0 256 256;" xml:space="preserve">
<path fill="white" d="M128.01,66.33c-35.9,0-65.01,27.73-65.01,61.94c0,34.21,29.11,61.94,65.01,61.94c35.9,0,65.01-27.73,65.01-61.94
	C193.02,94.06,163.92,66.33,128.01,66.33z M128.01,168.48c-23.3,0-42.2-18-42.2-40.21s18.89-40.21,42.2-40.21
	c23.31,0,42.2,18,42.2,40.21S151.32,168.48,128.01,168.48z M253.84,78.54c-0.62-12.84-2.75-21.61-5.88-29.28
	c-3.23-7.93-7.56-14.66-14.6-21.36c-7.04-6.71-14.1-10.83-22.42-13.91c-8.05-2.98-17.25-5.02-30.73-5.61
	c-13.5-0.59-17.81-0.73-52.19-0.73c-34.38,0-38.69,0.14-52.19,0.73C62.35,8.96,53.14,11,45.09,13.98
	c-8.32,3.08-15.38,7.21-22.42,13.91C15.63,34.6,11.3,41.33,8.07,49.26C4.94,56.93,2.8,65.7,2.18,78.54
	C1.57,91.4,1.42,95.51,1.42,128.27c0,32.76,0.15,36.87,0.76,49.73c0.61,12.84,2.75,21.61,5.88,29.28
	c3.23,7.93,7.56,14.66,14.6,21.36c7.04,6.71,14.1,10.83,22.42,13.91c8.05,2.98,17.25,5.02,30.73,5.61
	c13.5,0.59,17.81,0.72,52.19,0.72c34.38,0,38.69-0.14,52.19-0.72c13.47-0.59,22.68-2.63,30.73-5.61
	c8.32-3.08,15.38-7.21,22.42-13.91c7.04-6.71,11.37-13.43,14.6-21.36c3.13-7.67,5.27-16.44,5.88-29.28
	c0.62-12.87,0.76-16.97,0.76-49.73C254.61,95.51,254.46,91.4,253.84,78.54z M231.06,177.01c-0.56,11.76-2.63,18.15-4.36,22.4
	c-2.3,5.63-5.04,9.65-9.47,13.87c-4.43,4.22-8.65,6.83-14.56,9.02c-4.46,1.65-11.16,3.62-23.51,4.15
	c-13.35,0.58-17.35,0.7-51.15,0.7c-33.8,0-37.81-0.12-51.15-0.7c-12.34-0.54-19.05-2.5-23.51-4.15c-5.91-2.19-10.13-4.8-14.56-9.02
	c-4.43-4.22-7.17-8.24-9.47-13.87c-1.73-4.25-3.8-10.64-4.36-22.4c-0.61-12.72-0.74-16.53-0.74-48.74c0-32.21,0.13-36.02,0.74-48.74
	c0.56-11.76,2.63-18.15,4.36-22.4c2.3-5.63,5.04-9.65,9.47-13.87c4.43-4.22,8.65-6.83,14.56-9.02c4.46-1.65,11.17-3.62,23.51-4.15
	c13.35-0.58,17.35-0.7,51.15-0.7c33.8,0,37.8,0.12,51.15,0.7c12.34,0.54,19.05,2.5,23.51,4.15c5.91,2.19,10.13,4.8,14.56,9.02
	c4.43,4.22,7.17,8.24,9.47,13.87c1.73,4.25,3.8,10.64,4.36,22.4c0.61,12.72,0.74,16.53,0.74,48.74
	C231.8,160.48,231.67,164.29,231.06,177.01z M195.59,49.41c-8.39,0-15.19,6.48-15.19,14.47c0,7.99,6.8,14.48,15.19,14.48
	c8.39,0,15.19-6.48,15.19-14.48C210.78,55.89,203.98,49.41,195.59,49.41z"/>
</svg>
