<?xml version="1.0" encoding="utf-8"?>
<!-- Generator: Adobe Illustrator 28.3.0, SVG Export Plug-In . SVG Version: 6.00 Build 0)  -->
<svg version="1.1" id="Layer_1" xmlns="http://www.w3.org/2000/svg" xmlns:xlink="http://www.w3.org/1999/xlink" x="0px" y="0px"
	 viewBox="0 0 256 256" style="enable-background:new 0 0 256 256;" xml:space="preserve">
<g>
	<g>
		<path fill="white" d="M56.85,28.58c0,15.61-9.93,28.38-28.38,28.38C11.43,56.97,0.08,44.19,0.08,30c0-15.61,11.35-29.8,28.38-29.8
			C45.49,0.2,56.85,12.97,56.85,28.58z"/>
	</g>
	<g>
		<rect fill="white" x="0.08" y="71.16" width="56.77" height="184.5"/>
	</g>
	<g>
		<path fill="white" d="M193.09,74c-29.8,0-46.83,17.03-53.93,28.38h-1.42l-2.84-24.13H83.81c0,15.61,1.42,34.06,1.42,55.35v122.05H142V154.89
			c0-5.68,0-9.93,1.42-14.19c4.26-9.93,11.35-22.71,26.97-22.71c19.87,0,28.38,17.03,28.38,39.74v97.93h56.77V150.63
			C255.54,98.12,228.58,74,193.09,74z"/>
	</g>
</g>
</svg>
