<?xml version="1.0" encoding="utf-8"?>
<!-- Generator: Adobe Illustrator 28.3.0, SVG Export Plug-In . SVG Version: 6.00 Build 0)  -->
<svg version="1.1" id="Layer_1" xmlns="http://www.w3.org/2000/svg" xmlns:xlink="http://www.w3.org/1999/xlink" x="0px" y="0px"
	 viewBox="0 0 256 256" style="enable-background:new 0 0 256 256;" xml:space="preserve">
<g>
	<path fill="white" d="M128.73,255.23c-50.83,0-92.81-26.47-106.54-80c-7.75-30.21-5.9-64.3-1.58-86.13c4.84-24.5,20.59-58.59,49.04-74.01
		C99.57-1.13,135.34-1.45,156.88,3.2c27.21,5.88,46.9,17.61,61.96,36.92c15.92,20.42,20.09,41.06,20.26,41.92l-21.32,4.16
		l10.66-2.08l-10.65,2.12c-0.03-0.16-3.49-16.62-16.07-32.77C189.8,38.2,174.56,29.24,152.3,24.43
		c-19.33-4.17-49.18-2.78-72.29,9.75C56.67,46.83,45.09,77.3,41.92,93.31c-3.68,18.6-5.54,49.8,1.31,76.52
		c6.87,26.79,22.02,45.55,45.04,55.76c26.09,11.57,57.53,8.6,76.52,2.54c18.89-6.03,36.1-23.06,40.04-39.62
		c5.07-21.33-2.86-37.74-19.6-47.39c-3.44,23.48-14.51,41.03-31.45,48.77c-25.27,11.54-58.34,2.21-69.39-19.57
		c-6.09-12.01-5.79-26.55,0.79-37.93c4.5-7.79,16.11-21.06,43.32-22.5c12.87-0.68,24.61-0.17,35.19,1.54
		c-2.15-13.03-9.01-28.85-29.56-29.63c-18.72-0.71-27.65,7.29-31.84,14.13L83.79,84.56c4.76-7.77,19.27-25.71,51.18-24.48
		c29.68,1.13,49.29,23.13,51.21,57.43c32.53,13.15,47.71,42.67,39.79,76.02c-5.73,24.13-28.17,46.86-54.57,55.29
		C159.63,252.58,144.68,255.23,128.73,255.23z M139.4,131.31c-12.75,0-28.99,0.86-35.41,11.95c-2.95,5.1-3.03,11.7-0.23,17.24
		c5.68,11.19,26.75,16.15,41,9.64c11-5.02,17.91-18.27,19.54-36.57C156.89,132.06,148.58,131.31,139.4,131.31z"/>
</g>
</svg>
