<?xml version="1.0" encoding="utf-8"?>
<!-- Generator: Adobe Illustrator 28.3.0, SVG Export Plug-In . SVG Version: 6.00 Build 0)  -->
<svg version="1.1" id="Layer_1" xmlns="http://www.w3.org/2000/svg" xmlns:xlink="http://www.w3.org/1999/xlink" x="0px" y="0px"
	 viewBox="0 0 256 256" style="enable-background:new 0 0 256 256;" xml:space="preserve">
<g>
	<path fill="white" d="M127.76,30.96C3.56,30.96,1.39,42.01,1.39,128.27c0,86.26,2.17,97.31,126.38,97.31s126.38-11.05,126.38-97.31
		C254.14,42.01,251.96,30.96,127.76,30.96z M168.03,134.63l-57.02,27.56c-4.59,2.22-9.91-1.12-9.91-6.22v-53.87
		c0-5.04,5.22-8.38,9.8-6.27l57.02,26.31c2.21,1.02,3.45,2.93,3.84,4.98c0.24,0.58,0.24,1.18,0.11,1.76
		C171.71,131.2,170.47,133.45,168.03,134.63z"/>
</g>
</svg>
